# xmcd
#
# Track frame offsets:
#	150
#	21774
#	36686
#	49131
#	60556
#	91414
#	126627
#	144384
#	162838
#
# Disc length: 2398 seconds
#
# Revision: 1
# Processed by: cddbd v1.5.2PL0 Copyright (c) Steve Scherf et al.
# Submitted via: audiograbber 1.83.01
#
DISCID=80095c09
DTITLE=Roy Buchanan - Loading Zone
DYEAR=1900
DGENRE=Blues
TTITLE0=The Heat of the Battle
TTITLE1=Hidden
TTITLE2=The Circle
TTITLE3=Adventures of Brer Rabbit and Tar Baby
TTITLE4=Ramon's Blues
TTITLE5=Green Onions
TTITLE6=Judy
TTITLE7=Done Your Daddy Dirty
TTITLE8=Your Love
EXTD=
EXTT0=
EXTT1=
EXTT2=
EXTT3=
EXTT4=
EXTT5=
EXTT6=
EXTT7=
EXTT8=
PLAYORDER=
